<svg width="48" height="48" viewBox="0 0 48 48" fill="none" xmlns="http://www.w3.org/2000/svg">
<path d="M16.7536 23C16.3536 9.8 23.2536 4.5 26.7536 3.5C25.1535 11.9 28.0869 17.6667 29.7537 19.5C30.2537 17.3333 31.7537 14 35.7537 13C34.2536 19.5 45.2537 25.5 36.7535 37C31.2535 43.5 19.7537 45.5 12.2535 37.5C4.75338 29.5 8.75342 20 12.2535 17C12.4202 18.5 13.7535 21.5 16.7536 23Z" stroke="#020814" stroke-width="2"/>
<path d="M19.4999 38C17.9999 37 15.4998 34 17.9998 30.5C20.4999 34.5 26.9999 34.5 28.4999 27C31.9999 29.5 32.9999 35.5 28.4999 38" stroke="#1664FF" stroke-width="2"/>
</svg>
