<svg width="48" height="48" viewBox="0 0 48 48" fill="none" xmlns="http://www.w3.org/2000/svg">
<path d="M17 8C17 6.89543 17.8954 6 19 6H32.1716C32.702 6 33.2107 6.21071 33.5858 6.58579L40.4142 13.4142C40.7893 13.7893 41 14.298 41 14.8284V34C41 35.1046 40.1046 36 39 36H19C17.8954 36 17 35.1046 17 34V8Z" stroke="#020814" stroke-width="2"/>
<path d="M33 6L41 14H35C33.8954 14 33 13.1046 33 12V6Z" stroke="#020814" stroke-width="2" stroke-linejoin="round"/>
<path d="M17 12H9C7.89543 12 7 12.8954 7 14V40C7 41.1046 7.89543 42 9 42H29C30.1046 42 31 41.1046 31 40V36" stroke="#020814" stroke-width="2"/>
<path d="M23 21H35" stroke="#1664FF" stroke-width="2"/>
<path d="M23 27H35" stroke="#1664FF" stroke-width="2"/>
</svg>
